<svg width="25" height="25" viewBox="0 0 25 25" fill="none" xmlns="http://www.w3.org/2000/svg">
<path d="M12.787 15.9426C14.4438 15.9426 15.787 14.5995 15.787 12.9426C15.787 11.2858 14.4438 9.94261 12.787 9.94261C11.1301 9.94261 9.78699 11.2858 9.78699 12.9426C9.78699 14.5995 11.1301 15.9426 12.787 15.9426Z" stroke="white" stroke-width="2" stroke-linecap="round" stroke-linejoin="round"/>
<path d="M20.187 15.9426C20.0539 16.2442 20.0142 16.5788 20.073 16.9032C20.1318 17.2276 20.2865 17.5269 20.517 17.7626L20.577 17.8226C20.7629 18.0084 20.9105 18.2289 21.0111 18.4717C21.1118 18.7145 21.1636 18.9748 21.1636 19.2376C21.1636 19.5004 21.1118 19.7607 21.0111 20.0035C20.9105 20.2463 20.7629 20.4669 20.577 20.6526C20.3912 20.8386 20.1707 20.9861 19.9279 21.0867C19.6851 21.1874 19.4248 21.2392 19.162 21.2392C18.8992 21.2392 18.6389 21.1874 18.3961 21.0867C18.1533 20.9861 17.9327 20.8386 17.747 20.6526L17.687 20.5926C17.4513 20.3621 17.152 20.2074 16.8276 20.1486C16.5032 20.0898 16.1686 20.1295 15.867 20.2626C15.5712 20.3894 15.319 20.5999 15.1413 20.8681C14.9636 21.1364 14.8683 21.4508 14.867 21.7726V21.9426C14.867 22.473 14.6563 22.9818 14.2812 23.3568C13.9061 23.7319 13.3974 23.9426 12.867 23.9426C12.3366 23.9426 11.8278 23.7319 11.4528 23.3568C11.0777 22.9818 10.867 22.473 10.867 21.9426V21.8526C10.8592 21.5216 10.7521 21.2006 10.5595 20.9313C10.3669 20.662 10.0977 20.4569 9.78699 20.3426C9.48537 20.2095 9.15079 20.1698 8.8264 20.2286C8.502 20.2874 8.20267 20.4421 7.96699 20.6726L7.90699 20.7326C7.72124 20.9186 7.50066 21.0661 7.25787 21.1667C7.01507 21.2674 6.75482 21.3192 6.49199 21.3192C6.22916 21.3192 5.9689 21.2674 5.72611 21.1667C5.48331 21.0661 5.26273 20.9186 5.07699 20.7326C4.89103 20.5469 4.74352 20.3263 4.64287 20.0835C4.54222 19.8407 4.49041 19.5804 4.49041 19.3176C4.49041 19.0548 4.54222 18.7945 4.64287 18.5517C4.74352 18.3089 4.89103 18.0884 5.07699 17.9026L5.13699 17.8426C5.36752 17.6069 5.52217 17.3076 5.58099 16.9832C5.63981 16.6588 5.6001 16.3242 5.46699 16.0226C5.34022 15.7268 5.12974 15.4746 4.86145 15.2969C4.59316 15.1192 4.27877 15.0239 3.95699 15.0226H3.78699C3.25655 15.0226 2.74785 14.8119 2.37277 14.4368C1.9977 14.0618 1.78699 13.553 1.78699 13.0226C1.78699 12.4922 1.9977 11.9835 2.37277 11.6084C2.74785 11.2333 3.25655 11.0226 3.78699 11.0226H3.87699C4.20798 11.0149 4.52899 10.9077 4.79829 10.7151C5.06758 10.5225 5.2727 10.2533 5.38699 9.94261C5.5201 9.641 5.55981 9.30642 5.50099 8.98202C5.44217 8.65763 5.28752 8.35829 5.05699 8.12261L4.99699 8.06261C4.81103 7.87687 4.66352 7.65629 4.56287 7.41349C4.46222 7.1707 4.41041 6.91044 4.41041 6.64761C4.41041 6.38478 4.46222 6.12453 4.56287 5.88173C4.66352 5.63893 4.81103 5.41836 4.99699 5.23261C5.18273 5.04666 5.40331 4.89914 5.64611 4.79849C5.8889 4.69784 6.14916 4.64604 6.41199 4.64604C6.67482 4.64604 6.93507 4.69784 7.17787 4.79849C7.42066 4.89914 7.64124 5.04666 7.82699 5.23261L7.88699 5.29261C8.12267 5.52315 8.422 5.6778 8.7464 5.73662C9.07079 5.79544 9.40537 5.75573 9.70699 5.62261H9.78699C10.0828 5.49585 10.335 5.28537 10.5127 5.01708C10.6904 4.74879 10.7857 4.4344 10.787 4.11261V3.94261C10.787 3.41218 10.9977 2.90347 11.3728 2.5284C11.7478 2.15333 12.2566 1.94261 12.787 1.94261C13.3174 1.94261 13.8261 2.15333 14.2012 2.5284C14.5763 2.90347 14.787 3.41218 14.787 3.94261V4.03261C14.7883 4.3544 14.8836 4.66879 15.0613 4.93708C15.239 5.20537 15.4912 5.41585 15.787 5.54261C16.0886 5.67573 16.4232 5.71544 16.7476 5.65662C17.072 5.5978 17.3713 5.44315 17.607 5.21261L17.667 5.15261C17.8527 4.96666 18.0733 4.81914 18.3161 4.71849C18.5589 4.61784 18.8192 4.56604 19.082 4.56604C19.3448 4.56604 19.6051 4.61784 19.8479 4.71849C20.0907 4.81914 20.3112 4.96666 20.497 5.15261C20.6829 5.33836 20.8305 5.55893 20.9311 5.80173C21.0318 6.04453 21.0836 6.30478 21.0836 6.56761C21.0836 6.83044 21.0318 7.0907 20.9311 7.33349C20.8305 7.57629 20.6829 7.79687 20.497 7.98261L20.437 8.04261C20.2065 8.27829 20.0518 8.57763 19.993 8.90202C19.9342 9.22642 19.9739 9.561 20.107 9.86261V9.94261C20.2337 10.2384 20.4442 10.4906 20.7125 10.6683C20.9808 10.846 21.2952 10.9413 21.617 10.9426H21.787C22.3174 10.9426 22.8261 11.1533 23.2012 11.5284C23.5763 11.9035 23.787 12.4122 23.787 12.9426C23.787 13.473 23.5763 13.9818 23.2012 14.3568C22.8261 14.7319 22.3174 14.9426 21.787 14.9426H21.697C21.3752 14.9439 21.0608 15.0392 20.7925 15.2169C20.5242 15.3946 20.3137 15.6468 20.187 15.9426Z" stroke="white" stroke-width="2" stroke-linecap="round" stroke-linejoin="round"/>
</svg>
